<mxfile host="app.diagrams.net" modified="2021-04-13T14:35:30.663Z" agent="5.0 (Windows NT 10.0; Win64; x64) AppleWebKit/537.36 (KHTML, like Gecko) Chrome/89.0.4389.114 Safari/537.36" etag="acSz-Op8wWpmbY3PrIH9" version="14.6.0" type="github">
  <diagram id="0EiFzzbxyHH2jEoU4lUf" name="Page-1">
    <mxGraphModel dx="876" dy="1848" grid="1" gridSize="10" guides="1" tooltips="1" connect="1" arrows="1" fold="1" page="1" pageScale="1" pageWidth="827" pageHeight="1169" math="0" shadow="0">
      <root>
        <mxCell id="0" />
        <mxCell id="1" parent="0" />
        <mxCell id="XE4UK99OcYWblGDHAo1M-10" style="edgeStyle=orthogonalEdgeStyle;rounded=0;orthogonalLoop=1;jettySize=auto;html=1;exitX=0.5;exitY=0;exitDx=0;exitDy=0;endArrow=ERzeroToMany;endFill=1;startArrow=ERone;startFill=0;" parent="1" source="XE4UK99OcYWblGDHAo1M-1" target="XE4UK99OcYWblGDHAo1M-5" edge="1">
          <mxGeometry relative="1" as="geometry" />
        </mxCell>
        <mxCell id="XE4UK99OcYWblGDHAo1M-14" style="edgeStyle=orthogonalEdgeStyle;rounded=0;orthogonalLoop=1;jettySize=auto;html=1;exitX=1;exitY=0.5;exitDx=0;exitDy=0;endArrow=ERzeroToMany;endFill=1;startArrow=ERone;startFill=0;entryX=0;entryY=0.5;entryDx=0;entryDy=0;" parent="1" source="XE4UK99OcYWblGDHAo1M-1" target="XE4UK99OcYWblGDHAo1M-2" edge="1">
          <mxGeometry relative="1" as="geometry">
            <mxPoint x="1104" y="160" as="targetPoint" />
          </mxGeometry>
        </mxCell>
        <mxCell id="XE4UK99OcYWblGDHAo1M-15" style="edgeStyle=orthogonalEdgeStyle;rounded=0;orthogonalLoop=1;jettySize=auto;html=1;exitX=0.5;exitY=1;exitDx=0;exitDy=0;startArrow=none;startFill=0;endArrow=ERzeroToMany;endFill=1;" parent="1" source="XE4UK99OcYWblGDHAo1M-22" target="XE4UK99OcYWblGDHAo1M-3" edge="1">
          <mxGeometry relative="1" as="geometry" />
        </mxCell>
        <mxCell id="XE4UK99OcYWblGDHAo1M-1" value="&lt;font style=&quot;vertical-align: inherit&quot;&gt;&lt;font style=&quot;vertical-align: inherit&quot;&gt;회원정보&lt;/font&gt;&lt;/font&gt;" style="rounded=0;whiteSpace=wrap;html=1;" parent="1" vertex="1">
          <mxGeometry x="764" y="130" width="120" height="60" as="geometry" />
        </mxCell>
        <mxCell id="XE4UK99OcYWblGDHAo1M-2" value="문의사항" style="rounded=0;whiteSpace=wrap;html=1;" parent="1" vertex="1">
          <mxGeometry x="1250" y="130" width="120" height="60" as="geometry" />
        </mxCell>
        <mxCell id="XE4UK99OcYWblGDHAo1M-17" style="edgeStyle=orthogonalEdgeStyle;rounded=0;orthogonalLoop=1;jettySize=auto;html=1;exitX=0;exitY=0.5;exitDx=0;exitDy=0;entryX=1;entryY=0.5;entryDx=0;entryDy=0;startArrow=ERzeroToMany;startFill=1;endArrow=ERone;endFill=0;" parent="1" source="XE4UK99OcYWblGDHAo1M-3" target="XE4UK99OcYWblGDHAo1M-4" edge="1">
          <mxGeometry relative="1" as="geometry" />
        </mxCell>
        <mxCell id="XE4UK99OcYWblGDHAo1M-3" value="예약정보" style="rounded=0;whiteSpace=wrap;html=1;" parent="1" vertex="1">
          <mxGeometry x="764" y="390" width="120" height="60" as="geometry" />
        </mxCell>
        <mxCell id="XE4UK99OcYWblGDHAo1M-18" style="edgeStyle=orthogonalEdgeStyle;rounded=0;orthogonalLoop=1;jettySize=auto;html=1;exitX=0.5;exitY=0;exitDx=0;exitDy=0;entryX=0;entryY=0.5;entryDx=0;entryDy=0;startArrow=ERone;startFill=0;endArrow=ERzeroToMany;endFill=1;" parent="1" source="XE4UK99OcYWblGDHAo1M-4" target="XE4UK99OcYWblGDHAo1M-5" edge="1">
          <mxGeometry relative="1" as="geometry" />
        </mxCell>
        <mxCell id="XE4UK99OcYWblGDHAo1M-4" value="숙박정보" style="rounded=0;whiteSpace=wrap;html=1;" parent="1" vertex="1">
          <mxGeometry x="320" y="390" width="120" height="60" as="geometry" />
        </mxCell>
        <mxCell id="XE4UK99OcYWblGDHAo1M-5" value="후기" style="rounded=0;whiteSpace=wrap;html=1;" parent="1" vertex="1">
          <mxGeometry x="764" y="-100" width="120" height="60" as="geometry" />
        </mxCell>
        <mxCell id="XE4UK99OcYWblGDHAo1M-7" value="공지사항" style="rounded=0;whiteSpace=wrap;html=1;" parent="1" vertex="1">
          <mxGeometry x="120" y="-200" width="120" height="60" as="geometry" />
        </mxCell>
        <mxCell id="XE4UK99OcYWblGDHAo1M-20" value="작성하다" style="rhombus;whiteSpace=wrap;html=1;" parent="1" vertex="1">
          <mxGeometry x="764" width="120" height="80" as="geometry" />
        </mxCell>
        <mxCell id="XE4UK99OcYWblGDHAo1M-21" value="작성하다" style="rhombus;whiteSpace=wrap;html=1;" parent="1" vertex="1">
          <mxGeometry x="1010" y="120" width="120" height="80" as="geometry" />
        </mxCell>
        <mxCell id="XE4UK99OcYWblGDHAo1M-22" value="예약하다" style="rhombus;whiteSpace=wrap;html=1;" parent="1" vertex="1">
          <mxGeometry x="764" y="250" width="120" height="80" as="geometry" />
        </mxCell>
        <mxCell id="XE4UK99OcYWblGDHAo1M-23" value="" style="edgeStyle=orthogonalEdgeStyle;rounded=0;orthogonalLoop=1;jettySize=auto;html=1;exitX=0.5;exitY=1;exitDx=0;exitDy=0;startArrow=ERone;startFill=0;endArrow=none;endFill=1;" parent="1" source="XE4UK99OcYWblGDHAo1M-1" target="XE4UK99OcYWblGDHAo1M-22" edge="1">
          <mxGeometry relative="1" as="geometry">
            <mxPoint x="824" y="190" as="sourcePoint" />
            <mxPoint x="824" y="390" as="targetPoint" />
          </mxGeometry>
        </mxCell>
        <mxCell id="XE4UK99OcYWblGDHAo1M-24" value="관계하다" style="rhombus;whiteSpace=wrap;html=1;" parent="1" vertex="1">
          <mxGeometry x="530" y="380" width="120" height="80" as="geometry" />
        </mxCell>
        <mxCell id="XE4UK99OcYWblGDHAo1M-25" value="포함하다" style="rhombus;whiteSpace=wrap;html=1;" parent="1" vertex="1">
          <mxGeometry x="320" width="120" height="80" as="geometry" />
        </mxCell>
        <mxCell id="j0V0Bp7mJgEFoksXROvJ-6" style="edgeStyle=orthogonalEdgeStyle;rounded=0;orthogonalLoop=1;jettySize=auto;html=1;endArrow=none;endFill=0;" edge="1" parent="1">
          <mxGeometry relative="1" as="geometry">
            <mxPoint x="733" y="100" as="targetPoint" />
            <mxPoint x="701" y="100" as="sourcePoint" />
          </mxGeometry>
        </mxCell>
        <mxCell id="XE4UK99OcYWblGDHAo1M-27" value="비밀번호" style="ellipse;whiteSpace=wrap;html=1;" parent="1" vertex="1">
          <mxGeometry x="633" y="75" width="70" height="50" as="geometry" />
        </mxCell>
        <mxCell id="XE4UK99OcYWblGDHAo1M-28" value="이름" style="ellipse;whiteSpace=wrap;html=1;" parent="1" vertex="1">
          <mxGeometry x="633" y="135" width="70" height="50" as="geometry" />
        </mxCell>
        <mxCell id="XE4UK99OcYWblGDHAo1M-29" value="이메일" style="ellipse;whiteSpace=wrap;html=1;" parent="1" vertex="1">
          <mxGeometry x="632" y="195" width="70" height="50" as="geometry" />
        </mxCell>
        <mxCell id="j0V0Bp7mJgEFoksXROvJ-3" style="edgeStyle=orthogonalEdgeStyle;rounded=1;orthogonalLoop=1;jettySize=auto;html=1;exitX=1;exitY=0.5;exitDx=0;exitDy=0;entryX=0;entryY=0.5;entryDx=0;entryDy=0;endArrow=none;endFill=0;" edge="1" parent="1" source="XE4UK99OcYWblGDHAo1M-30" target="XE4UK99OcYWblGDHAo1M-1">
          <mxGeometry relative="1" as="geometry" />
        </mxCell>
        <mxCell id="XE4UK99OcYWblGDHAo1M-30" value="전화번호" style="ellipse;whiteSpace=wrap;html=1;" parent="1" vertex="1">
          <mxGeometry x="633" y="254" width="70" height="50" as="geometry" />
        </mxCell>
        <mxCell id="j0V0Bp7mJgEFoksXROvJ-1" style="edgeStyle=orthogonalEdgeStyle;rounded=1;orthogonalLoop=1;jettySize=auto;html=1;exitX=1;exitY=0.5;exitDx=0;exitDy=0;entryX=0;entryY=0.5;entryDx=0;entryDy=0;endArrow=none;endFill=0;" edge="1" parent="1" source="XE4UK99OcYWblGDHAo1M-31" target="XE4UK99OcYWblGDHAo1M-1">
          <mxGeometry relative="1" as="geometry" />
        </mxCell>
        <mxCell id="XE4UK99OcYWblGDHAo1M-31" value="아이디" style="ellipse;whiteSpace=wrap;html=1;verticalAlign=middle;fontStyle=4" parent="1" vertex="1">
          <mxGeometry x="633" y="15" width="70" height="50" as="geometry" />
        </mxCell>
        <mxCell id="j0V0Bp7mJgEFoksXROvJ-7" style="edgeStyle=orthogonalEdgeStyle;rounded=0;orthogonalLoop=1;jettySize=auto;html=1;endArrow=none;endFill=0;" edge="1" parent="1">
          <mxGeometry relative="1" as="geometry">
            <mxPoint x="740" y="160" as="targetPoint" />
            <mxPoint x="703" y="159.5" as="sourcePoint" />
          </mxGeometry>
        </mxCell>
        <mxCell id="j0V0Bp7mJgEFoksXROvJ-8" style="edgeStyle=orthogonalEdgeStyle;rounded=0;orthogonalLoop=1;jettySize=auto;html=1;endArrow=none;endFill=0;" edge="1" parent="1">
          <mxGeometry relative="1" as="geometry">
            <mxPoint x="734" y="219.5" as="targetPoint" />
            <mxPoint x="702" y="219.5" as="sourcePoint" />
          </mxGeometry>
        </mxCell>
        <mxCell id="j0V0Bp7mJgEFoksXROvJ-10" value="숙박&lt;br&gt;체크아웃" style="ellipse;whiteSpace=wrap;html=1;" vertex="1" parent="1">
          <mxGeometry x="80" y="230" width="70" height="50" as="geometry" />
        </mxCell>
        <mxCell id="j0V0Bp7mJgEFoksXROvJ-11" value="숙박&lt;br&gt;체크인" style="ellipse;whiteSpace=wrap;html=1;" vertex="1" parent="1">
          <mxGeometry x="80" y="170" width="70" height="50" as="geometry" />
        </mxCell>
        <mxCell id="j0V0Bp7mJgEFoksXROvJ-12" value="대실금액" style="ellipse;whiteSpace=wrap;html=1;" vertex="1" parent="1">
          <mxGeometry x="180" y="530" width="70" height="50" as="geometry" />
        </mxCell>
        <mxCell id="j0V0Bp7mJgEFoksXROvJ-13" value="대실시간" style="ellipse;whiteSpace=wrap;html=1;" vertex="1" parent="1">
          <mxGeometry x="180" y="470" width="70" height="50" as="geometry" />
        </mxCell>
        <mxCell id="j0V0Bp7mJgEFoksXROvJ-14" value="제공서비스" style="ellipse;whiteSpace=wrap;html=1;" vertex="1" parent="1">
          <mxGeometry x="180" y="410" width="70" height="50" as="geometry" />
        </mxCell>
        <mxCell id="j0V0Bp7mJgEFoksXROvJ-15" value="숙소내용" style="ellipse;whiteSpace=wrap;html=1;" vertex="1" parent="1">
          <mxGeometry x="180" y="350" width="70" height="50" as="geometry" />
        </mxCell>
        <mxCell id="j0V0Bp7mJgEFoksXROvJ-16" value="숙소주소" style="ellipse;whiteSpace=wrap;html=1;" vertex="1" parent="1">
          <mxGeometry x="180" y="290" width="70" height="50" as="geometry" />
        </mxCell>
        <mxCell id="j0V0Bp7mJgEFoksXROvJ-17" value="숙소이름" style="ellipse;whiteSpace=wrap;html=1;" vertex="1" parent="1">
          <mxGeometry x="180" y="230" width="70" height="50" as="geometry" />
        </mxCell>
        <mxCell id="j0V0Bp7mJgEFoksXROvJ-18" value="숙소코드" style="ellipse;whiteSpace=wrap;html=1;fontStyle=4" vertex="1" parent="1">
          <mxGeometry x="180" y="170" width="70" height="50" as="geometry" />
        </mxCell>
        <mxCell id="j0V0Bp7mJgEFoksXROvJ-19" value="숙박금액" style="ellipse;whiteSpace=wrap;html=1;" vertex="1" parent="1">
          <mxGeometry x="80" y="290" width="70" height="50" as="geometry" />
        </mxCell>
        <mxCell id="j0V0Bp7mJgEFoksXROvJ-20" value="최대인원" style="ellipse;whiteSpace=wrap;html=1;" vertex="1" parent="1">
          <mxGeometry x="80" y="410" width="70" height="50" as="geometry" />
        </mxCell>
        <mxCell id="j0V0Bp7mJgEFoksXROvJ-21" value="기준인원" style="ellipse;whiteSpace=wrap;html=1;" vertex="1" parent="1">
          <mxGeometry x="80" y="350" width="70" height="50" as="geometry" />
        </mxCell>
        <mxCell id="j0V0Bp7mJgEFoksXROvJ-23" value="방종류" style="ellipse;whiteSpace=wrap;html=1;" vertex="1" parent="1">
          <mxGeometry x="80" y="470" width="70" height="50" as="geometry" />
        </mxCell>
        <mxCell id="j0V0Bp7mJgEFoksXROvJ-24" value="상품이미지" style="ellipse;whiteSpace=wrap;html=1;" vertex="1" parent="1">
          <mxGeometry x="80" y="530" width="70" height="50" as="geometry" />
        </mxCell>
        <mxCell id="j0V0Bp7mJgEFoksXROvJ-25" style="edgeStyle=orthogonalEdgeStyle;rounded=0;orthogonalLoop=1;jettySize=auto;html=1;exitX=0.5;exitY=1;exitDx=0;exitDy=0;endArrow=none;endFill=0;" edge="1" parent="1" source="j0V0Bp7mJgEFoksXROvJ-23" target="j0V0Bp7mJgEFoksXROvJ-23">
          <mxGeometry relative="1" as="geometry" />
        </mxCell>
        <mxCell id="j0V0Bp7mJgEFoksXROvJ-26" value="평점" style="ellipse;whiteSpace=wrap;html=1;" vertex="1" parent="1">
          <mxGeometry x="130" y="585" width="70" height="50" as="geometry" />
        </mxCell>
        <mxCell id="j0V0Bp7mJgEFoksXROvJ-27" value="" style="shape=curlyBracket;whiteSpace=wrap;html=1;rounded=1;flipH=1;" vertex="1" parent="1">
          <mxGeometry x="270" y="185" width="50" height="455" as="geometry" />
        </mxCell>
      </root>
    </mxGraphModel>
  </diagram>
</mxfile>
